<svg id="Layer_2" data-name="Layer 2" xmlns="http://www.w3.org/2000/svg" width="50" height="35.138" viewBox="0 0 50 35.138">
  <g id="Layer_1" data-name="Layer 1">
    <path id="Path_7726" data-name="Path 7726" d="M12.467,17.569A19.965,19.965,0,0,1,21.961.577,18.066,18.066,0,0,0,17.569,0a17.569,17.569,0,1,0,0,35.138,15.905,15.905,0,0,0,4.392-.577,19.964,19.964,0,0,1-9.494-16.992Z" fill="#47c431"/>
    <circle id="Ellipse_1589" data-name="Ellipse 1589" cx="17.569" cy="17.569" r="17.569" transform="translate(14.862 0)" fill="#3487ea"/>
    <circle id="Ellipse_398" data-name="Ellipse 398" cx="3.86" cy="3.86" r="3.86" transform="translate(28.571 9.006)" fill="#fff"/>
    <path id="Path_4365" data-name="Path 4365" d="M54.6,48.41l16.46.089a7.9,7.9,0,0,0-8.341-7.1A7.656,7.656,0,0,0,54.6,48.41Z" transform="translate(-30.376 -23.032)" fill="#fff"/>
  </g>
</svg>
