<svg xmlns="http://www.w3.org/2000/svg" width="50" height="46.865" viewBox="0 0 50 46.865">
  <g id="RightPlayer-Icon" transform="translate(-0.29 -10.52)">
    <g id="Group_14755" data-name="Group 14755" transform="translate(0.29 10.52)">
      <path id="Path_8321" data-name="Path 8321" d="M39.578,39.647a4.1,4.1,0,0,1-2.687,1.07h-.1L8.377,44.188c-2.712-.062-4.889-3.036-4.889-6.681V10.4c0-3.645,2.19-6.619,4.889-6.681L36.692,7.176l.2.012a4.077,4.077,0,0,1,2.687,1.07l4.217.361a8.021,8.021,0,0,0-6.805-4.628L8.663.532,8.464.52C3.96.52.29,4.949.29,10.4V37.507c0,5.449,3.67,9.878,8.174,9.878h.1l28.427-3.471A7.974,7.974,0,0,0,43.8,39.286Z" transform="translate(-0.29 -0.52)" fill="#515151"/>
      <g id="Group_14754" data-name="Group 14754" transform="translate(8.024 6.469)">
        <path id="Path_8322" data-name="Path 8322" d="M11.853,39.634,43.6,36.947c2.824,0,5.113-2.874,5.113-6.432V14.839c0-3.546-2.289-6.432-5.113-6.432L11.853,5.72c-2.824,0-5.113,2.874-5.113,6.432V33.2C6.728,36.76,9.017,39.634,11.853,39.634Zm6.42-21.7a2.651,2.651,0,0,1,2.3-2.9l14.307,1.207a2.651,2.651,0,0,1,2.3,2.9V26.2a2.651,2.651,0,0,1-2.3,2.9L20.574,30.3a2.651,2.651,0,0,1-2.3-2.9Z" transform="translate(-6.74 -5.72)" fill="#47c431"/>
      </g>
    </g>
  </g>
</svg>
