<svg xmlns="http://www.w3.org/2000/svg" width="44.243" height="50" viewBox="0 0 44.243 50">
  <g id="RightDesk-Icon" transform="translate(-7.45 0.002)">
    <path id="Path_7722" data-name="Path 7722" d="M43.663,75.681a17.537,17.537,0,0,0,11.9-3.965v0c.008,0,.012-.012.02-.016a1.52,1.52,0,0,0,.2-2.145c-.836-.98-2.133-2.242-3.141-3.191a1.59,1.59,0,0,0-2.039-.1,9.815,9.815,0,0,1-6.324,1.949,9.249,9.249,0,0,1-5.445-2.07,1.716,1.716,0,0,0-2.187.059A26.452,26.452,0,0,0,33.4,69.349a1.635,1.635,0,0,0,.117,2.266A16.4,16.4,0,0,0,43.663,75.681Z" transform="translate(-15.572 -40.089)" fill="#fff"/>
    <path id="Path_7723" data-name="Path 7723" d="M55.6,48.672A5.01,5.01,0,0,0,60.781,44.1c.008-.074.012-.152.016-.227a4.61,4.61,0,0,0-4.414-4.8A5.01,5.01,0,0,0,51.2,43.648h0c-.008.078-.012.152-.016.23A4.607,4.607,0,0,0,55.6,48.672Z" transform="translate(-26.648 -23.81)" fill="#fff"/>
    <path id="Path_7724" data-name="Path 7724" d="M48.824.542A8.108,8.108,0,0,0,44.1.2C37.914,1.495,14.579,6.354,12.477,6.655A6.578,6.578,0,0,0,9.2,8.714,6.042,6.042,0,0,0,7.45,12.967c.008,6.269.059,24.1.344,25.242C8.141,39.6,12.3,41.5,12.3,41.5l.172,8.5c10.75-8.668,30.171-2.6,33.812-1.906a4.116,4.116,0,0,0,2.969-.5,4.82,4.82,0,0,0,2.223-4.2c-.059-6.832-.266-33.773.188-38.308A4.161,4.161,0,0,0,48.824.542ZM44.125,40.1H13.86V9.839H44.121V40.1Z" fill="#47c431"/>
    <path id="Path_7725" data-name="Path 7725" d="M23.86,55.451H54.121V25.19H23.86ZM34.551,35.19h0a5.007,5.007,0,0,1,5.184-4.574,4.61,4.61,0,0,1,4.414,4.8c0,.074-.008.152-.016.227a5.007,5.007,0,0,1-5.184,4.574,4.61,4.61,0,0,1-4.414-4.8C34.54,35.342,34.543,35.264,34.551,35.19Zm-6.723,9.422a26.735,26.735,0,0,1,3.238-3.141,1.716,1.716,0,0,1,2.187-.059,9.2,9.2,0,0,0,5.445,2.07,9.808,9.808,0,0,0,6.324-1.949,1.589,1.589,0,0,1,2.039.1c1.008.949,2.3,2.211,3.141,3.191a1.527,1.527,0,0,1-.2,2.144c-.008,0-.012.012-.02.016v0A17.5,17.5,0,0,1,38.09,50.944a16.4,16.4,0,0,1-10.144-4.07A1.626,1.626,0,0,1,27.829,44.612Z" transform="translate(-10 -15.351)" fill="#47c431"/>
  </g>
</svg>
