<svg xmlns="http://www.w3.org/2000/svg" width="50" height="38.342" viewBox="0 0 50 38.342">
  <g id="RightFlow-Icon" transform="translate(-0.38 -7.15)">
    <path id="Path_8332" data-name="Path 8332" d="M42.259,16.943A9.794,9.794,0,0,0,32.465,7.15H18.346A9.794,9.794,0,0,0,8.84,14.62,16.925,16.925,0,0,1,31.677,28.335a17.026,17.026,0,0,1-.916,7.982h1.705a9.794,9.794,0,0,0,9.793-9.793l6.074,3.506a1,1,0,0,0,1.492-.863V14.29a1,1,0,0,0-1.492-.863Z" transform="translate(0.555 0)" fill="#3487ea"/>
    <circle id="Ellipse_1610" data-name="Ellipse 1610" cx="15.047" cy="15.047" r="15.047" transform="translate(0.38 15.398)" fill="#3cc64f"/>
    <path id="Path_8333" data-name="Path 8333" d="M8.54,31.84a1.625,1.625,0,0,0-1.566,2.035,8.268,8.268,0,0,0,16.027,0,1.625,1.625,0,0,0-1.566-2.035Z" transform="translate(0.43 1.621)" fill="#fff"/>
  </g>
</svg>
