<svg xmlns="http://www.w3.org/2000/svg" width="168.537" height="161.91" viewBox="0 0 168.537 161.91">
  <g id="Unavailable" transform="translate(-56.11 -55.028)">
    <g id="freepik--background-simple--inject-103" transform="translate(68.563 55.028)">
      <path id="Path_7067" data-name="Path 7067" d="M177.6,176.927c36.347-15.494,74.359-44.505,58.213-87.141C221.163,51.1,171.677,42.3,143.375,75.647c-12.208,14.382-10.074,33.487-24.843,46.291s-39.29,19.919-32.653,45.2C96.166,206.225,153.679,187.14,177.6,176.927Z" transform="translate(-84.763 -55.028)" fill="#92e3a9"/>
      <path id="Path_7068" data-name="Path 7068" d="M177.6,176.927c36.347-15.494,74.359-44.505,58.213-87.141C221.163,51.1,171.677,42.3,143.375,75.647c-12.208,14.382-10.074,33.487-24.843,46.291s-39.29,19.919-32.653,45.2C96.166,206.225,153.679,187.14,177.6,176.927Z" transform="translate(-84.763 -55.028)" fill="#fff" opacity="0.9"/>
    </g>
    <g id="freepik--Shadow--inject-103" transform="translate(56.11 207.098)">
      <ellipse id="freepik--path--inject-103" cx="84.269" cy="4.92" rx="84.269" ry="4.92" fill="#f5f5f5"/>
    </g>
    <g id="freepik--Character--inject-103" transform="translate(74.803 78.955)">
      <path id="Path_7069" data-name="Path 7069" d="M334.049,232.468h-.156c-11.578-.947-19.558-10.866-19.88-11.265a1.943,1.943,0,0,1,3.042-2.412c.091.117,6.91,8.523,16.355,9.722,3.042-3.042,5.65-11.074,5.359-13.5v-.07a11.685,11.685,0,0,1,.561-5.063,1.943,1.943,0,0,1,3.477,1.686,9.039,9.039,0,0,0-.191,3.042c.435,4-3.042,14.09-7.389,17.467A1.943,1.943,0,0,1,334.049,232.468Z" transform="translate(-220.404 -165.984)" fill="#263238"/>
      <path id="Path_7070" data-name="Path 7070" d="M120.72,189.05a28.6,28.6,0,0,1-21.105-9.683,1.938,1.938,0,0,1-.113-2.451c3.138-4.22,8.692-14.186,9.562-17.433a4.742,4.742,0,0,0-1.8-1.882,1.934,1.934,0,0,1-1.108-1.569l-.313-3.181a1.943,1.943,0,0,1,3.864-.382l.217,2.212a9.709,9.709,0,0,1,2.96,3.759,1.947,1.947,0,0,1,.139.982c-.4,3.447-5.993,13.43-9.436,18.476a24.288,24.288,0,0,0,18.063,7.241,1.943,1.943,0,0,1,.356,3.868C121.894,189.015,121.446,189.05,120.72,189.05Z" transform="translate(-99.119 -133.097)" fill="#263238"/>
      <path id="Path_7071" data-name="Path 7071" d="M282.219,368.562H277a1.943,1.943,0,0,1-1.873-2.46,72.843,72.843,0,0,0,2.53-15.086c-1.843-8.692-3.577-16.607-3.594-16.685a1.943,1.943,0,0,1,3.794-.83c0,.078,1.791,8.2,3.655,16.985a1.839,1.839,0,0,1,.035.556,79.839,79.839,0,0,1-2.03,13.638h2.686a1.943,1.943,0,0,1,0,3.881Z" transform="translate(-198.011 -235.564)" fill="#263238"/>
      <path id="Path_7072" data-name="Path 7072" d="M193.974,368.417h-2.938a1.934,1.934,0,0,1-1.921-2.208c.5-3.564,3.042-10.053,5.78-16.576.969-8.605,1.76-15.994,1.769-16.081a1.943,1.943,0,1,1,3.859.435c0,.074-.817,7.632-1.8,16.363a1.872,1.872,0,0,1-.139.53,140.025,140.025,0,0,0-5.129,13.664h.522a1.943,1.943,0,1,1,0,3.881Z" transform="translate(-149.99 -235.419)" fill="#263238"/>
      <path id="Path_7073" data-name="Path 7073" d="M173.709,111l-22.626,22.631c-1.139,25.082-1.047,51.429,0,78.745h74.824c-1.482-35.248-1.621-69.179,0-101.375Z" transform="translate(-128.035 -110.6)" fill="#fff"/>
      <path id="Path_7074" data-name="Path 7074" d="M225.41,212.238H150.585a.391.391,0,0,1-.391-.374c-1.082-28.368-1.082-54.88,0-78.784a.391.391,0,0,1,.117-.256l22.626-22.631a.387.387,0,0,1,.274-.113h52.2a.391.391,0,0,1,.283.122.378.378,0,0,1,.1.287c-1.56,31.006-1.56,64.154,0,101.34a.387.387,0,0,1-.109.283.374.374,0,0,1-.278.126Zm-74.455-.778h74.051c-1.539-36.882-1.543-69.8,0-100.6H173.372l-22.418,22.409C149.89,157.015,149.89,183.318,150.955,211.46Z" transform="translate(-127.537 -110.08)" fill="#263238"/>
      <path id="Path_7095" data-name="Path 7095" d="M208.422,214.835c-.087-1.895-1.16-3.39-2.4-3.347s-2.173,1.612-2.095,3.507,1.16,3.39,2.4,3.342S208.509,216.726,208.422,214.835Z" transform="translate(-158.371 -159.591)" fill="#92e3a9"/>
      <path id="Path_7096" data-name="Path 7096" d="M268.792,213.471c-.087-1.891-1.16-3.386-2.4-3.342s-2.173,1.612-2.095,3.507,1.165,3.39,2.4,3.342S268.879,215.366,268.792,213.471Z" transform="translate(-192.503 -158.822)" fill="#92e3a9"/>
      <path id="Path_7097" data-name="Path 7097" d="M226,235.694a15.886,15.886,0,0,1,12.443.565.552.552,0,0,1,.213.756.565.565,0,0,1-.761.213,15.291,15.291,0,0,0-13.651.435.569.569,0,0,1-.756-.235.552.552,0,0,1,.239-.748,18.137,18.137,0,0,1,2.273-.987Z" transform="translate(-169.4 -172.708)" fill="#92e3a9"/>
      <path id="Path_7098" data-name="Path 7098" d="M194.3,178.34a1.147,1.147,0,0,1,.548.156,1.121,1.121,0,0,1,.4,1.525,10.992,10.992,0,0,1-8.5,5.559,1.126,1.126,0,0,1-1.169-1.065,1.108,1.108,0,0,1,1.06-1.156h0a8.745,8.745,0,0,0,6.676-4.464,1.1,1.1,0,0,1,.982-.556Z" transform="translate(-148.001 -140.849)" fill="#92e3a9"/>
      <path id="Path_7099" data-name="Path 7099" d="M264.855,176.843a1.117,1.117,0,0,1,1.013.313,9,9,0,0,0,7.615,2.747,1.13,1.13,0,0,1,1.3.869,1.1,1.1,0,0,1-.869,1.3,11.231,11.231,0,0,1-9.653-3.368,1.1,1.1,0,0,1,.569-1.869Z" transform="translate(-192.304 -139.991)" fill="#92e3a9"/>
      <path id="Path_7101" data-name="Path 7101" d="M176.847,135.627c-2.212-6.037-4.424-15.7-2.091-24.647L152.13,133.611C158.532,135.762,168.728,136.679,176.847,135.627Z" transform="translate(-129.09 -110.589)" opacity="0.2"/>
      <path id="Path_7102" data-name="Path 7102" d="M174.776,133.611c-2.482-7.328-1.469-17.289,0-22.631L152.15,133.611C159,134.858,166.653,134.658,174.776,133.611Z" transform="translate(-129.102 -110.589)" fill="#fff"/>
      <path id="Path_7103" data-name="Path 7103" d="M162.014,134.351a57.866,57.866,0,0,1-10.431-.869.382.382,0,0,1-.2-.652L174.005,110.2a.387.387,0,0,1,.648.378c-1.365,4.972-2.5,15.038,0,22.4a.4.4,0,0,1-.039.33.378.378,0,0,1-.278.178,96.42,96.42,0,0,1-12.321.865Zm-9.562-1.5c6.015,1,13,.974,21.3-.07-2.047-6.493-1.582-15.086-.209-21.036Z" transform="translate(-128.6 -110.082)" fill="#263238"/>
    </g>
  </g>
</svg>
